# xmcd
#
# Track frame offsets:
#	150
#	11730
#	26572
#	42012
#	53040
#	69992
#	84157
#	99765
#	114547
#	131332
#
# Disc length: 1964 seconds
#
# Revision: 1
# Processed by: cddbd v1.5.2PL0 Copyright (c) Steve Scherf et al.
# Submitted via: audiograbber 1.83.01
#
DISCID=6c07aa0a
DTITLE=Crystal Day - Anything can happen
DYEAR=2000
DGENRE=Country
TTITLE0=I'm not man enough
TTITLE1=Something going on
TTITLE2=Take it on faith
TTITLE3=21 Reasons
TTITLE4=Wash away this kiss
TTITLE5=Anything can happen
TTITLE6=Cedar box
TTITLE7=Straight to the bottom
TTITLE8=Time stands still
TTITLE9=One woman
EXTD=
EXTT0=
EXTT1=
EXTT2=
EXTT3=
EXTT4=
EXTT5=
EXTT6=
EXTT7=
EXTT8=
EXTT9=
PLAYORDER=
